<svg xmlns="http://www.w3.org/2000/svg" xmlns:xlink="http://www.w3.org/1999/xlink" width="500" zoomAndPan="magnify" viewBox="0 0 375 374.999991" height="500" preserveAspectRatio="xMidYMid meet" version="1.0"><defs><clipPath id="fa2b56fc55"><path d="M 55.339844 106.5625 L 217.339844 106.5625 L 217.339844 268.5625 L 55.339844 268.5625 Z M 55.339844 106.5625 " clip-rule="nonzero"/></clipPath><clipPath id="947927dde4"><path d="M 157.523438 106.5625 L 319.523438 106.5625 L 319.523438 268.5625 L 157.523438 268.5625 Z M 157.523438 106.5625 " clip-rule="nonzero"/></clipPath><clipPath id="05fe09c5fa"><path d="M 65.199219 219.445312 L 104.199219 219.445312 L 104.199219 258.445312 L 65.199219 258.445312 Z M 65.199219 219.445312 " clip-rule="nonzero"/></clipPath></defs><rect x="-37.5" width="450" fill="#ffffff" y="-37.499999" height="449.999989" fill-opacity="1"/><rect x="-37.5" width="450" fill="#ffffff" y="-37.499999" height="449.999989" fill-opacity="1"/><rect x="-37.5" width="450" fill="#facc15" y="-37.499999" height="449.999989" fill-opacity="1"/><g clip-path="url(#fa2b56fc55)"><path fill="#000000" d="M 157.9375 238.859375 C 157.9375 255.234375 171.261719 268.5625 187.640625 268.5625 C 204.015625 268.5625 217.339844 255.234375 217.339844 238.859375 C 217.339844 222.488281 204.015625 209.160156 187.640625 209.160156 C 184.785156 209.160156 182.03125 209.589844 179.417969 210.34375 L 154.203125 159.914062 C 161.585938 154.398438 166.039062 145.773438 166.039062 136.261719 C 166.039062 119.882812 152.714844 106.5625 136.339844 106.5625 C 119.960938 106.5625 106.640625 119.882812 106.640625 136.261719 C 106.640625 145.785156 111.105469 154.425781 118.472656 159.917969 L 93.257812 210.34375 C 90.644531 209.589844 87.894531 209.160156 85.039062 209.160156 C 68.664062 209.160156 55.339844 222.488281 55.339844 238.859375 C 55.339844 255.234375 68.664062 268.5625 85.039062 268.5625 C 101.414062 268.5625 114.738281 255.234375 114.738281 238.859375 C 114.738281 229.199219 110.078125 220.625 102.910156 215.195312 L 128.132812 164.75 C 130.78125 165.523438 133.515625 165.960938 136.339844 165.960938 C 139.167969 165.960938 141.90625 165.523438 144.546875 164.753906 L 169.769531 215.195312 C 162.597656 220.625 157.9375 229.199219 157.9375 238.859375 Z M 103.9375 238.859375 C 103.9375 249.28125 95.460938 257.761719 85.039062 257.761719 C 74.617188 257.761719 66.140625 249.28125 66.140625 238.859375 C 66.140625 228.441406 74.617188 219.960938 85.039062 219.960938 C 95.460938 219.960938 103.9375 228.441406 103.9375 238.859375 Z M 117.4375 136.261719 C 117.4375 125.839844 125.917969 117.359375 136.339844 117.359375 C 146.757812 117.359375 155.238281 125.839844 155.238281 136.261719 C 155.238281 143.492188 151.238281 149.949219 144.746094 153.152344 C 142.125 154.484375 139.300781 155.160156 136.339844 155.160156 C 133.378906 155.160156 130.550781 154.484375 127.875 153.125 C 121.4375 149.949219 117.4375 143.492188 117.4375 136.261719 Z M 206.539062 238.859375 C 206.539062 249.28125 198.058594 257.761719 187.640625 257.761719 C 177.21875 257.761719 168.738281 249.28125 168.738281 238.859375 C 168.738281 228.441406 177.21875 219.960938 187.640625 219.960938 C 198.058594 219.960938 206.539062 228.441406 206.539062 238.859375 Z M 206.539062 238.859375 " fill-opacity="1" fill-rule="nonzero"/></g><g clip-path="url(#947927dde4)"><path fill="#000000" d="M 260.125 238.859375 C 260.125 255.234375 273.449219 268.5625 289.824219 268.5625 C 306.203125 268.5625 319.523438 255.234375 319.523438 238.859375 C 319.523438 222.488281 306.203125 209.160156 289.824219 209.160156 C 286.96875 209.160156 284.21875 209.589844 281.605469 210.34375 L 256.386719 159.914062 C 263.769531 154.398438 268.226562 145.773438 268.226562 136.261719 C 268.226562 119.882812 254.902344 106.5625 238.523438 106.5625 C 222.148438 106.5625 208.824219 119.882812 208.824219 136.261719 C 208.824219 145.785156 213.292969 154.425781 220.660156 159.917969 L 195.445312 210.34375 C 192.832031 209.589844 190.078125 209.160156 187.226562 209.160156 C 170.847656 209.160156 157.523438 222.488281 157.523438 238.859375 C 157.523438 255.234375 170.847656 268.5625 187.226562 268.5625 C 203.601562 268.5625 216.925781 255.234375 216.925781 238.859375 C 216.925781 229.199219 212.265625 220.625 205.09375 215.195312 L 230.320312 164.75 C 232.964844 165.523438 235.703125 165.960938 238.523438 165.960938 C 241.351562 165.960938 244.09375 165.523438 246.730469 164.753906 L 271.953125 215.195312 C 264.785156 220.625 260.125 229.199219 260.125 238.859375 Z M 206.125 238.859375 C 206.125 249.28125 197.644531 257.761719 187.226562 257.761719 C 176.804688 257.761719 168.324219 249.28125 168.324219 238.859375 C 168.324219 228.441406 176.804688 219.960938 187.226562 219.960938 C 197.644531 219.960938 206.125 228.441406 206.125 238.859375 Z M 219.625 136.261719 C 219.625 125.839844 228.105469 117.359375 238.523438 117.359375 C 248.945312 117.359375 257.425781 125.839844 257.425781 136.261719 C 257.425781 143.492188 253.425781 149.949219 246.929688 153.152344 C 244.3125 154.484375 241.484375 155.160156 238.523438 155.160156 C 235.5625 155.160156 232.738281 154.484375 230.0625 153.125 C 223.625 149.949219 219.625 143.492188 219.625 136.261719 Z M 308.726562 238.859375 C 308.726562 249.28125 300.246094 257.761719 289.824219 257.761719 C 279.40625 257.761719 270.925781 249.28125 270.925781 238.859375 C 270.925781 228.441406 279.40625 219.960938 289.824219 219.960938 C 300.246094 219.960938 308.726562 228.441406 308.726562 238.859375 Z M 308.726562 238.859375 " fill-opacity="1" fill-rule="nonzero"/></g><g clip-path="url(#05fe09c5fa)"><path fill="#000000" d="M 98.484375 225.15625 C 94.800781 221.476562 89.90625 219.445312 84.695312 219.445312 C 79.488281 219.445312 74.59375 221.476562 70.910156 225.15625 C 67.226562 228.839844 65.199219 233.738281 65.199219 238.945312 C 65.199219 244.15625 67.226562 249.050781 70.910156 252.734375 C 74.59375 256.417969 79.488281 258.445312 84.695312 258.445312 C 89.90625 258.445312 94.800781 256.417969 98.484375 252.734375 C 102.167969 249.050781 104.195312 244.15625 104.195312 238.945312 C 104.195312 233.738281 102.167969 228.839844 98.484375 225.15625 Z M 71.792969 226.042969 C 75.242188 222.597656 79.824219 220.699219 84.695312 220.699219 C 89.570312 220.699219 94.152344 222.597656 97.601562 226.042969 C 101.046875 229.488281 102.945312 234.070312 102.945312 238.945312 C 102.945312 243 101.632812 246.847656 99.210938 250.011719 C 97.28125 247.316406 94.203125 245.722656 90.859375 245.722656 L 78.535156 245.722656 C 75.191406 245.722656 72.113281 247.316406 70.183594 250.011719 C 67.761719 246.847656 66.449219 243 66.449219 238.945312 C 66.449219 234.070312 68.347656 229.488281 71.792969 226.042969 Z M 84.695312 244.695312 C 89.707031 244.695312 93.78125 240.621094 93.78125 235.609375 C 93.78125 230.601562 89.707031 226.523438 84.695312 226.523438 C 79.6875 226.523438 75.609375 230.601562 75.609375 235.609375 C 75.609375 240.621094 79.6875 244.695312 84.695312 244.695312 Z M 84.695312 244.695312 " fill-opacity="1" fill-rule="nonzero"/></g></svg>